<svg xmlns="http://www.w3.org/2000/svg" version="1.1" xmlns:xlink="http://www.w3.org/1999/xlink" xmlns:svgjs="http://svgjs.dev/svgjs" width="1000" height="1000" viewBox="0 0 1000 1000"><rect width="1000" height="1000" fill="#ca3433"></rect><g transform="matrix(0.7,0,0,0.7,150.0000000000001,106.25)"><svg viewBox="0 0 320 360" data-background-color="#ca3433" preserveAspectRatio="xMidYMid meet" height="1125" width="1000" xmlns="http://www.w3.org/2000/svg" xmlns:xlink="http://www.w3.org/1999/xlink"><g id="tight-bounds" transform="matrix(1,0,0,1,0,0)"><svg viewBox="0 0 320 360" height="360" width="320"><g><svg></svg></g><g><svg viewBox="0 0 320 360" height="360" width="320"><g><path xmlns="http://www.w3.org/2000/svg" d="M20.961 227.22l3.726 4.658-1.863-6.056c-0.466-2.795-3.726 0.466-1.863 1.398M25.153 224.425c1.397 2.329 2.795 4.658 2.795 6.987 0 3.261 2.795 4.658 5.123 5.589-3.261-3.726-5.124-13.974-7.918-12.576M204.017 26.929c7.918 0 15.371-0.932 23.756 0.931 20.495 5.124 37.729 15.371 49.374 29.811l32.606 52.169c1.397 13.042 4.192 27.482 3.726 43.319 3.261 0 2.795-4.658 6.521-5.59-3.726 9.316-5.59 20.961-6.521 34.469-2.329-7.453 0-18.632 0.466-24.687-3.261 5.124-5.124 1.397-5.124-0.932 0.466-3.726-1.397-3.261-2.795-4.658-5.124-4.658-8.384-9.782-12.11-17.7 2.329-6.055 2.795-14.905-4.658-19.563-2.329-1.397-5.124-3.726-6.521-7.453-1.863-5.124-5.124-11.179-4.193-19.097 0.466-2.329-6.987 5.124-11.179 1.863-18.166-12.576-36.332-27.016-58.224-39.127-11.645 0-20.029-4.192-24.221-9.316-3.726-4.658-0.932-10.713 4.658-11.179 3.261 0 6.987-0.932 9.782 0.932 0.466-1.863 2.329-4.192 4.657-4.192M157.904 16.215l0.932 0.466c4.658 0.932 6.987 7.453 12.11 5.124 0 3.261 0.466 6.521-0.466 8.85-1.397 3.726-5.59 3.726-8.85 3.726-31.208-1.863-49.374 11.179-68.471 22.358-5.124 3.261-10.713 5.59-14.906 9.782-20.029 18.632-41.921 35.866-47.045 70.335l-4.192 38.195c-0.466 4.192-5.124 8.384-4.192 13.508l3.26 22.824c-3.261-3.261-5.124 0.932-4.192 2.795 0.466 1.397 2.329 6.055 5.124 1.863 3.726 6.987 7.453 20.495 12.576 26.55 15.837 18.632 36.332 35.4 53.101 52.169 4.192-0.932 7.453-0.932 8.384-3.727 1.397 2.795-1.397 5.59-3.726 6.056 7.453 4.658 15.837 8.85 27.016 9.781 14.44 0.932 27.948 3.261 40.524 6.522 6.521-1.863 13.042-2.795 20.029-3.261 2.329 0 3.726-3.726 6.521-4.658l0.466-4.658c2.795 4.192 2.329-1.397 0.466-4.192 3.261 2.795 4.192 5.124 5.589 6.987 0-1.397 3.726-6.521 3.727-0.466l0.931-6.055c1.397-0.932 1.863 5.124 3.261 0.931 1.397-4.192 4.192-0.932 6.987-2.329-0.932 1.863-0.466 5.59 2.794 3.261l3.727-3.261c2.329 5.59 6.055 3.261 7.918 2.329 20.495-13.042 40.99-28.413 60.553-43.784l-0.466 6.055 2.329-7.453c2.329 2.329 4.192 0.466 5.124-0.931 2.795-4.658 6.521-9.316 12.577-13.508-7.453 20.029-16.303 35.866-27.482 48.908l-4.658 5.59c0 3.261-0.932 7.453-4.658 7.918-1.863 0.466-5.59-0.932-8.384 1.863-1.397 1.863 3.261 5.59-0.466 2.795-3.261-2.329-6.521 0-10.248 0.932-2.795 0.932 1.863 3.726 2.795 5.589 0.932 1.863 1.863 3.726 1.398 6.056l-5.124-5.59c-6.055 3.261-9.782 9.316-14.906 13.974-2.329 1.863-1.397 5.124-1.397 7.918-3.261 0-6.987-0.932-8.85 0.932-1.397 1.863-0.932 4.658-0.932 7.453-4.658-0.466-5.124-7.453-9.315-6.056-4.192 0.932-8.85 1.397-12.577 3.727 2.795 5.59-4.658 2.329-3.726 3.26-6.987-4.192-13.042-7.453-20.495-4.658-15.837-5.124-35.4-2.795-49.84-0.931 0-2.329 0.466-4.658-0.466-5.124-0.932 2.329-3.726 1.397-3.26 1.397-8.85-6.055-17.7-9.782-27.016-14.905-8.384 0.932-16.303-3.261-18.632-5.59-6.521-6.055-13.974-2.795-20.029-4.192-13.042-3.261-17.7-16.769-19.098-26.084-0.932-4.658-4.658-6.521-6.055-6.056-6.055-19.563-15.371-37.263-22.824-55.429-1.863-4.658-1.397-9.316-1.397-14.44 2.329 0.932 4.658 0.466 4.192-2.794-2.329-15.371-7.918-27.016-13.974-38.195 3.261-15.837 3.726-34.469 11.179-48.443 6.521-12.576 18.632-19.098 27.016-29.811 2.795-3.726 2.795-8.85 5.59-12.11 9.316-9.316 18.632-19.098 28.879-27.482 4.658-3.726 10.247 0 17.234-1.397 2.329-8.384 11.645-15.837 20.495-13.508 3.726 0.932 11.179-8.85 13.508-9.782 3.726-1.397 1.863 3.726 1.863 6.987 8.85-6.987 20.961-10.713 32.14-14.906" fill="#ffffff" fill-rule="nonzero" stroke="none" stroke-width="1" stroke-linecap="butt" stroke-linejoin="miter" stroke-miterlimit="10" stroke-dasharray="" stroke-dashoffset="0" font-family="none" font-weight="none" font-size="none" text-anchor="none" style="mix-blend-mode: normal" data-fill-palette-color="tertiary"></path></g><g transform="matrix(1,0,0,1,71.98074277854197,90)"><svg viewBox="0 0 176.03851444291607 180" height="180" width="176.03851444291607"><g><svg viewBox="0 0 176.03851444291607 180" height="180" width="176.03851444291607"><g><svg viewBox="0 0 176.0385144429161 180.00000000000003" height="180" width="176.03851444291607"><g><svg viewBox="0 0 176.0385144429161 180.00000000000003" height="180.00000000000003" width="176.0385144429161"><g><svg viewBox="0 0 176.0385144429161 180.00000000000003" height="180.00000000000003" width="176.0385144429161"><g><svg viewBox="0 0 176.0385144429161 180.00000000000003" height="180.00000000000003" width="176.0385144429161"><g transform="matrix(1,0,0,1,0,0)"><svg width="176.0385144429161" viewBox="3.759999990463257 -35.54999923706055 34.720001220703125 35.5" height="180.00000000000003" data-palette-color="#ffffff"><path d="M38.48-17.53L38.48-17.53Q38.48-16.11 38.48-14.55 38.48-12.99 38.13-11.57L38.13-11.57Q37.89-10.5 37.6-9.69 37.3-8.89 36.87-8.23 36.43-7.57 35.79-7.01 35.16-6.45 34.23-5.91L34.23-5.91Q33.94-5.71 32.67-5.4 31.4-5.08 29.52-4.64 27.64-4.2 25.32-3.71 23-3.22 20.58-2.76 18.16-2.29 15.8-1.83 13.43-1.37 11.5-1 9.57-0.63 8.23-0.37 6.88-0.1 6.45-0.05L6.45-0.05Q5.62-8.98 4.88-17.77 4.15-26.56 3.76-35.55L3.76-35.55Q7.86-35.4 11.91-35.23 15.97-35.06 20.12-34.77L20.12-34.77Q21.19-34.67 23.27-34.52 25.34-34.38 27.59-34.11 29.83-33.84 31.81-33.45 33.79-33.06 34.67-32.47L34.67-32.47Q35.79-31.64 36.67-30.22 37.55-28.81 37.94-27.44L37.94-27.44Q38.13-26.81 38.23-25.46 38.33-24.12 38.38-22.61 38.43-21.09 38.45-19.68 38.48-18.26 38.48-17.53ZM26.32-16.89L26.32-16.89Q26.32-17.43 26.29-18.04 26.27-18.65 26.22-19.19L26.22-19.19Q26.12-19.97 25.95-20.83 25.78-21.68 25.49-22.49 25.2-23.29 24.76-24 24.32-24.71 23.68-25.24L23.68-25.24Q23.34-25.54 22.02-25.71 20.7-25.88 19.14-25.95 17.58-26.03 16.21-26.05 14.84-26.07 14.45-26.07L14.45-26.07 12.45-26.07Q12.84-22.27 13.16-18.58 13.48-14.89 13.72-11.08L13.72-11.08Q14.65-11.13 16.38-11.35 18.12-11.57 19.92-11.94 21.73-12.3 23.29-12.87 24.85-13.43 25.54-14.21L25.54-14.21Q26.07-14.79 26.2-15.45 26.32-16.11 26.32-16.89Z" opacity="1" transform="matrix(1,0,0,1,0,0)" fill="#ffffff" class="undefined-text-0" data-fill-palette-color="primary" id="text-0"></path></svg></g></svg></g></svg></g></svg></g><g></g></svg></g></svg></g></svg></g></svg></g><defs></defs></svg><rect width="320" height="360" fill="none" stroke="none" visibility="hidden"></rect></g></svg></g></svg>